<svg width="512" height="512" viewBox="0 0 512 512" fill="none" xmlns="http://www.w3.org/2000/svg">
<path d="M248.373 135.856C248.373 144.834 246.067 152.868 241.454 159.961C236.841 167.053 230.146 172.658 221.367 176.774C212.588 180.891 201.925 182.949 189.376 182.949C176.679 182.949 165.966 180.866 157.237 176.7C148.458 172.484 141.837 166.805 137.373 159.663C132.86 152.521 130.603 144.561 130.603 135.782C130.603 129.086 131.744 123.581 134.025 119.266C136.257 114.951 138.96 111.529 142.135 108.999C145.259 106.47 148.21 104.511 150.988 103.122L150.988 102.006L94 102.006L94 75L246.364 75L246.364 101.485L228.36 101.485L228.36 103.122C231.138 104.511 234.089 106.519 237.213 109.148C240.288 111.777 242.917 115.248 245.099 119.563C247.282 123.878 248.373 129.309 248.373 135.856ZM226.277 128.342C226.277 122.639 224.74 117.778 221.664 113.761C218.54 109.743 214.2 106.693 208.645 104.61C203.09 102.527 196.618 101.485 189.228 101.485C181.838 101.485 175.415 102.527 169.959 104.61C164.503 106.643 160.263 109.669 157.237 113.686C154.212 117.654 152.699 122.539 152.699 128.342C152.699 134.344 154.261 139.353 157.386 143.37C160.511 147.388 164.826 150.413 170.331 152.447C175.836 154.48 182.135 155.497 189.228 155.497C196.37 155.497 202.743 154.48 208.347 152.447C213.902 150.364 218.292 147.313 221.516 143.296C224.69 139.229 226.277 134.244 226.277 128.342Z" fill="white"/>
<path d="M248.67 265.678C248.67 272.92 247.381 279.442 244.802 285.245C242.173 290.998 238.305 295.561 233.196 298.934C228.087 302.257 221.789 303.918 214.299 303.918C207.852 303.918 202.52 302.728 198.304 300.347C194.088 297.966 190.716 294.718 188.186 290.601C185.657 286.485 183.747 281.847 182.458 276.689C181.118 271.481 180.151 266.1 179.556 260.545C178.862 253.849 178.242 248.418 177.696 244.252C177.101 240.086 176.208 237.06 175.018 235.176C173.778 233.241 171.868 232.274 169.289 232.274L168.843 232.274C163.238 232.274 158.899 233.936 155.824 237.259C152.749 240.582 151.211 245.368 151.211 251.617C151.211 258.214 152.649 263.446 155.526 267.315C158.403 271.134 161.8 273.713 165.718 275.052L162.147 300.198C155.204 298.214 149.401 294.941 144.738 290.378C140.027 285.815 136.505 280.235 134.174 273.639C131.793 267.042 130.603 259.751 130.603 251.766C130.603 246.261 131.248 240.78 132.537 235.325C133.827 229.869 135.96 224.884 138.936 220.371C141.862 215.857 145.854 212.237 150.913 209.509C155.972 206.731 162.296 205.343 169.885 205.343L246.364 205.343L246.364 231.233L230.666 231.233L230.666 232.125C233.841 233.762 236.817 236.068 239.594 239.044C242.322 241.971 244.529 245.666 246.215 250.129C247.852 254.544 248.67 259.727 248.67 265.678ZM228.881 258.685C228.881 253.279 227.815 248.592 225.682 244.624C223.5 240.656 220.623 237.606 217.052 235.473C213.481 233.291 209.587 232.2 205.372 232.2L191.906 232.2C192.6 233.043 193.245 234.481 193.84 236.515C194.435 238.499 194.956 240.731 195.403 243.211C195.849 245.69 196.246 248.146 196.593 250.576C196.94 253.006 197.238 255.114 197.486 256.9C198.031 260.917 198.924 264.513 200.164 267.687C201.404 270.861 203.14 273.366 205.372 275.201C207.554 277.036 210.381 277.954 213.853 277.954C218.813 277.954 222.557 276.143 225.087 272.523C227.616 268.902 228.881 264.29 228.881 258.685Z" fill="white"/>
<path d="M246.364 430.15L94 430.15L94 373.014C94 361.309 96.1823 351.489 100.547 343.553C104.911 335.568 110.913 329.542 118.551 325.475C126.139 321.358 134.769 319.3 144.441 319.3C154.212 319.3 162.891 321.358 170.48 325.475C178.068 329.591 184.045 335.667 188.409 343.702C192.724 351.737 194.882 361.631 194.882 373.386L194.882 411.254L172.191 411.254L172.191 377.106C172.191 370.261 171 364.657 168.62 360.292C166.239 355.928 162.966 352.704 158.799 350.621C154.633 348.488 149.847 347.422 144.441 347.422C139.035 347.422 134.273 348.488 130.157 350.621C126.04 352.704 122.841 355.952 120.56 360.367C118.228 364.731 117.063 370.36 117.063 377.255L117.063 402.549L246.364 402.549L246.364 430.15Z" fill="white"/>
<path d="M417.288 219.646C417.288 226.887 415.999 233.409 413.42 239.212C410.791 244.965 406.922 249.528 401.814 252.901C396.705 256.224 390.406 257.885 382.917 257.885C376.469 257.885 371.138 256.695 366.922 254.314C362.706 251.934 359.333 248.685 356.804 244.568C354.274 240.452 352.365 235.814 351.075 230.656C349.736 225.448 348.769 220.067 348.174 214.512C347.479 207.817 346.86 202.386 346.314 198.219C345.719 194.053 344.826 191.028 343.636 189.143C342.396 187.209 340.486 186.241 337.907 186.241L337.461 186.241C331.856 186.241 327.516 187.903 324.441 191.226C321.366 194.549 319.829 199.335 319.829 205.585C319.829 212.181 321.267 217.414 324.144 221.282C327.02 225.101 330.418 227.68 334.336 229.02L330.765 254.166C323.821 252.182 318.018 248.908 313.356 244.345C308.645 239.782 305.123 234.202 302.792 227.606C300.411 221.009 299.221 213.719 299.221 205.733C299.221 200.228 299.866 194.748 301.155 189.292C302.445 183.836 304.577 178.851 307.553 174.338C310.48 169.825 314.472 166.204 319.531 163.476C324.59 160.699 330.914 159.31 338.502 159.31L414.982 159.31L414.982 185.2L399.284 185.2L399.284 186.093C402.459 187.729 405.434 190.036 408.212 193.012C410.94 195.938 413.147 199.633 414.833 204.097C416.47 208.511 417.288 213.694 417.288 219.646ZM397.499 212.652C397.499 207.246 396.432 202.559 394.3 198.591C392.117 194.624 389.241 191.573 385.67 189.441C382.099 187.258 378.205 186.167 373.989 186.167L360.524 186.167C361.218 187.01 361.863 188.449 362.458 190.482C363.053 192.466 363.574 194.698 364.02 197.178C364.467 199.658 364.863 202.113 365.211 204.543C365.558 206.973 365.855 209.081 366.103 210.867C366.649 214.884 367.542 218.48 368.782 221.654C370.022 224.829 371.758 227.333 373.989 229.168C376.172 231.003 378.999 231.921 382.471 231.921C387.43 231.921 391.175 230.111 393.705 226.49C396.234 222.869 397.499 218.257 397.499 212.652Z" fill="white"/>
<path d="M414.982 307.154L300.709 307.154L300.709 280.223L414.982 280.223L414.982 307.154ZM284.491 293.614C284.491 297.88 283.077 301.55 280.25 304.625C277.373 307.7 273.926 309.238 269.909 309.238C265.842 309.238 262.395 307.7 259.568 304.625C256.691 301.55 255.253 297.88 255.253 293.614C255.253 289.299 256.691 285.629 259.568 282.604C262.395 279.529 265.842 277.991 269.909 277.991C273.926 277.991 277.373 279.529 280.25 282.604C283.077 285.629 284.491 289.299 284.491 293.614Z" fill="white"/>
<path d="M417.214 380.751C417.214 392.208 414.833 402.103 410.072 410.435C405.261 418.718 398.466 425.092 389.687 429.555C380.859 434.019 370.468 436.251 358.515 436.251C346.76 436.251 336.444 434.019 327.566 429.555C318.639 425.042 311.695 418.743 306.735 410.659C301.726 402.574 299.221 393.076 299.221 382.165C299.221 375.122 300.362 368.476 302.643 362.226C304.875 355.928 308.347 350.373 313.059 345.562C317.771 340.701 323.772 336.882 331.063 334.105C338.304 331.327 346.934 329.938 356.953 329.938L365.211 329.938L365.211 423.604L347.058 423.604L347.058 355.754C341.9 355.804 337.312 356.92 333.295 359.102C329.228 361.284 326.029 364.334 323.698 368.253C321.366 372.121 320.201 376.635 320.201 381.793C320.201 387.298 321.54 392.134 324.218 396.3C326.847 400.466 330.319 403.715 334.634 406.046C338.899 408.328 343.586 409.493 348.695 409.543L364.541 409.543C371.187 409.543 376.891 408.328 381.652 405.897C386.364 403.467 389.985 400.07 392.514 395.705C394.994 391.34 396.234 386.232 396.234 380.379C396.234 376.461 395.689 372.915 394.597 369.741C393.457 366.566 391.795 363.814 389.613 361.483C387.431 359.151 384.727 357.391 381.504 356.2L384.331 331.054C390.977 332.641 396.78 335.667 401.739 340.131C406.65 344.545 410.469 350.199 413.197 357.093C415.875 363.987 417.214 371.873 417.214 380.751Z" fill="white"/>
</svg>
