<svg width="128" height="128" viewBox="0 0 128 128" fill="none" xmlns="http://www.w3.org/2000/svg">
<path fill-rule="evenodd" clip-rule="evenodd" d="M21 0C9.40204 0 0 9.40204 0 21V31.9875L2.1181 30.7646C9.51733 26.4927 16.5215 24.2881 23.1309 24.1509C29.7716 23.9956 35.7712 25.59 41.1297 28.934C46.5015 32.2285 50.9523 36.9326 54.4821 43.0463C58.048 49.2228 59.9146 55.4607 60.0819 61.7601C60.2491 68.0594 58.5897 74.0548 55.1035 79.7463C51.5992 85.4064 46.1318 90.3814 38.7012 94.6714L20.2659 105.315L33.3631 128H107C118.598 128 128 118.598 128 107V88.4072C127.489 88.731 126.962 89.0497 126.418 89.3636C121.841 92.0063 117.247 93.5715 112.638 94.0591C108.042 94.4971 103.745 93.717 99.7489 91.7186C95.7838 89.702 92.4346 86.3267 89.7013 81.5925C87.3481 77.5166 86.1547 73.7118 86.121 70.1779C86.0873 66.6441 86.91 63.3265 88.5891 60.2251C90.2682 57.1237 92.5027 54.2241 95.2927 51.5264C98.0959 48.7792 101.145 46.2039 104.439 43.8003C108.418 40.9177 111.625 38.5436 114.06 36.6783C116.476 34.7815 118.063 33.113 118.82 31.6727C119.59 30.1829 119.504 28.6229 118.563 26.9926L118.4 26.7103C116.355 23.1675 113.72 21.0306 110.498 20.2995C107.275 19.5684 103.688 20.3433 99.7375 22.6241C95.5676 25.0316 92.7849 27.8505 91.3893 31.0808C90.025 34.2931 89.6346 37.382 90.2181 40.3476L73.0191 47.2676C71.739 42.1542 71.6904 37.2913 72.8733 32.6788C74.0381 28.035 76.2801 23.7725 79.5992 19.8915C82.9002 15.9791 87.0746 12.5657 92.1223 9.65137C95.6025 7.64215 99.3022 6.0495 103.222 4.87354C107.141 3.69751 111.07 3.2265 115.01 3.46045C116.551 3.5401 118.065 3.77423 119.552 4.1629C116.051 1.54816 111.706 0 107 0H21ZM7.02527 122.675L0.431091 111.254C1.35693 115.754 3.72253 119.729 7.02527 122.675ZM0 70.2135L11.9845 90.9713L28.0684 81.6852C32.395 79.1873 35.5034 76.3893 37.3936 73.2915C39.2838 70.1937 40.127 66.9478 39.9233 63.554C39.7509 60.142 38.6782 56.7273 36.7051 53.3098C34.7321 49.8924 32.3203 47.2717 29.4697 45.4478C26.6505 43.6058 23.4293 42.7692 19.8063 42.938C16.1965 43.0574 12.2126 44.3751 7.85461 46.8912L0 51.4261V70.2135ZM128 71.1345V43.2293L126.864 41.2621C126.585 42.0088 125.911 42.9413 124.843 44.0597C123.806 45.16 122.585 46.3038 121.18 47.491C119.775 48.6782 118.368 49.8251 116.959 50.9315C115.549 52.038 114.325 52.9954 113.287 53.8038C110.947 55.6149 108.999 57.4916 107.445 59.4339C105.891 61.3762 104.942 63.3876 104.596 65.4683C104.233 67.5175 104.684 69.6395 105.951 71.8342C107.762 74.9694 110.273 76.6758 113.484 76.9534C116.696 77.231 120.074 76.347 123.617 74.3016C125.277 73.3431 126.738 72.2874 128 71.1345Z" fill="white"/>
</svg>
