<svg width="128" height="128" viewBox="0 0 128 128" fill="none" xmlns="http://www.w3.org/2000/svg">
<path d="M74.4604 67.4752L46.9922 40.8552C43.3582 37.3347 37.7598 36.6399 33.3766 39.1678C29.0945 41.6372 26.905 46.5467 27.9326 51.3822L35.9985 89.4072L21.6383 92.4492L13.5724 54.4242C11.225 43.3544 16.2373 32.1159 26.0404 26.4633C36.0743 20.6754 48.8913 22.2624 57.2098 30.3235L84.678 56.9436L74.4604 67.4752Z" fill="#5700FF"/>
<path d="M107.578 97.1889C105.973 98.8258 104.131 100.27 102.075 101.47C92.0693 107.309 79.2437 105.787 70.8851 97.7707L43.2802 71.2883L53.4455 60.7056L81.0498 87.1868C84.6998 90.689 90.3023 91.3522 94.6734 88.8019C98.9411 86.3113 101.107 81.392 100.055 76.5611L91.7938 38.5785L106.138 35.4625L114.4 73.4456C116.297 82.1786 113.608 91.0389 107.578 97.1889Z" fill="#5700FF"/>
</svg>
