<svg width="68" height="68" viewBox="0 0 68 68" fill="none" xmlns="http://www.w3.org/2000/svg">
<path d="M32.987 18.0434C32.987 19.2357 32.6807 20.3028 32.0681 21.2448C31.4555 22.1868 30.5662 22.9311 29.4003 23.4779C28.2344 24.0246 26.8181 24.298 25.1515 24.298C23.4652 24.298 22.0424 24.0213 20.883 23.468C19.7171 22.9081 18.8377 22.1538 18.2449 21.2053C17.6454 20.2567 17.3457 19.1995 17.3457 18.0336C17.3457 17.1443 17.4972 16.4131 17.8002 15.84C18.0967 15.2669 18.4557 14.8124 18.8772 14.4765C19.2922 14.1405 19.6842 13.8803 20.0531 13.6959L20.0531 13.5477L12.4844 13.5477L12.4844 9.96095L32.7202 9.96095L32.7202 13.4785L30.3291 13.4785L30.3291 13.6959C30.698 13.8803 31.0899 14.1471 31.5049 14.4962C31.9133 14.8454 32.2624 15.3065 32.5523 15.8795C32.8421 16.4526 32.987 17.1739 32.987 18.0434ZM30.0524 17.0455C30.0524 16.2879 29.8482 15.6424 29.4398 15.1088C29.0248 14.5753 28.4484 14.1702 27.7107 13.8935C26.9729 13.6168 26.1133 13.4785 25.1318 13.4785C24.1503 13.4785 23.2973 13.6168 22.5727 13.8935C21.8481 14.1636 21.2849 14.5654 20.883 15.099C20.4812 15.6259 20.2803 16.2748 20.2803 17.0455C20.2803 17.8425 20.4878 18.5078 20.9028 19.0414C21.3178 19.575 21.8909 19.9768 22.6221 20.2469C23.3532 20.5169 24.1898 20.652 25.1318 20.652C26.0803 20.652 26.9268 20.5169 27.6711 20.2469C28.4089 19.9702 28.9919 19.5651 29.4201 19.0315C29.8416 18.4914 30.0524 17.8293 30.0524 17.0455Z" fill="white"/>
<path d="M33.0265 35.2854C33.0265 36.2471 32.8552 37.1134 32.5127 37.8841C32.1636 38.6482 31.6498 39.2542 30.9713 39.7021C30.2928 40.1435 29.4563 40.3641 28.4616 40.3641C27.6053 40.3641 26.8971 40.206 26.3372 39.8899C25.7773 39.5737 25.3294 39.1422 24.9934 38.5955C24.6575 38.0487 24.4039 37.4328 24.2326 36.7478C24.0548 36.0561 23.9263 35.3414 23.8473 34.6036C23.755 33.7144 23.6727 32.9931 23.6002 32.4397C23.5212 31.8864 23.4026 31.4846 23.2445 31.2343C23.0799 30.9774 22.8262 30.8489 22.4837 30.8489L22.4244 30.8489C21.6801 30.8489 21.1037 31.0696 20.6953 31.5109C20.2869 31.9523 20.0827 32.588 20.0827 33.4179C20.0827 34.294 20.2737 34.989 20.6558 35.5028C21.0378 36.01 21.489 36.3525 22.0094 36.5304L21.5352 39.8701C20.6129 39.6066 19.8422 39.1719 19.2231 38.5658C18.5973 37.9598 18.1296 37.2188 17.82 36.3427C17.5038 35.4666 17.3457 34.4982 17.3457 33.4377C17.3457 32.7065 17.4313 31.9786 17.6026 31.254C17.7739 30.5295 18.0571 29.8674 18.4524 29.268C18.841 28.6686 19.3713 28.1877 20.0432 27.8254C20.7151 27.4565 21.5549 27.2721 22.5628 27.2721L32.7202 27.2721L32.7202 30.7106L30.6354 30.7106L30.6354 30.8292C31.0569 31.0466 31.4522 31.3529 31.8211 31.7481C32.1834 32.1367 32.4765 32.6275 32.7004 33.2203C32.9178 33.8066 33.0265 34.4949 33.0265 35.2854ZM30.3982 34.3566C30.3982 33.6386 30.2566 33.0161 29.9734 32.4891C29.6835 31.9622 29.3015 31.5571 28.8272 31.2738C28.3529 30.984 27.8358 30.8391 27.2759 30.8391L25.4875 30.8391C25.5797 30.951 25.6653 31.1421 25.7444 31.4121C25.8234 31.6756 25.8926 31.972 25.9519 32.3014C26.0112 32.6308 26.0639 32.9568 26.11 33.2796C26.1561 33.6024 26.1956 33.8823 26.2285 34.1195C26.301 34.653 26.4196 35.1306 26.5842 35.5522C26.7489 35.9738 26.9795 36.3064 27.2759 36.5501C27.5657 36.7939 27.9412 36.9157 28.4023 36.9157C29.061 36.9157 29.5584 36.6753 29.8943 36.1944C30.2303 35.7136 30.3982 35.101 30.3982 34.3566Z" fill="white"/>
<path d="M32.7202 57.1293L12.4844 57.1293L12.4844 49.5409C12.4844 47.9863 12.7742 46.682 13.3539 45.6281C13.9336 44.5676 14.7306 43.7672 15.745 43.2271C16.7529 42.6803 17.899 42.407 19.1836 42.407C20.4812 42.407 21.634 42.6803 22.6418 43.2271C23.6497 43.7738 24.4434 44.5807 25.0231 45.6479C25.5962 46.715 25.8827 48.0291 25.8827 49.5903L25.8827 54.6196L22.8691 54.6196L22.8691 50.0843C22.8691 49.1753 22.711 48.4309 22.3948 47.8513C22.0786 47.2716 21.6439 46.8434 21.0905 46.5668C20.5372 46.2835 19.9016 46.1419 19.1836 46.1419C18.4655 46.1419 17.8332 46.2835 17.2864 46.5668C16.7397 46.8434 16.3148 47.2749 16.0118 47.8612C15.7022 48.4408 15.5474 49.1885 15.5474 50.1041L15.5474 53.4636L32.7202 53.4636L32.7202 57.1293Z" fill="white"/>
<path d="M55.4211 29.1716C55.4211 30.1334 55.2498 30.9996 54.9073 31.7703C54.5582 32.5344 54.0444 33.1404 53.3659 33.5884C52.6874 34.0297 51.8509 34.2504 50.8562 34.2504C49.9998 34.2504 49.2917 34.0923 48.7318 33.7761C48.1719 33.4599 47.724 33.0284 47.388 32.4817C47.0521 31.935 46.7985 31.3191 46.6272 30.634C46.4494 29.9423 46.3209 29.2276 46.2419 28.4899C46.1496 27.6006 46.0673 26.8793 45.9948 26.326C45.9158 25.7726 45.7972 25.3708 45.6391 25.1205C45.4744 24.8636 45.2208 24.7352 44.8783 24.7352L44.819 24.7352C44.0747 24.7352 43.4983 24.9558 43.0899 25.3972C42.6815 25.8385 42.4773 26.4742 42.4773 27.3042C42.4773 28.1803 42.6683 28.8752 43.0504 29.389C43.4324 29.8962 43.8836 30.2388 44.404 30.4166L43.9297 33.7563C43.0075 33.4928 42.2368 33.0581 41.6176 32.4521C40.9919 31.846 40.5242 31.105 40.2146 30.2289C39.8984 29.3528 39.7403 28.3845 39.7403 27.3239C39.7403 26.5928 39.8259 25.8649 39.9972 25.1403C40.1685 24.4157 40.4517 23.7537 40.8469 23.1542C41.2356 22.5548 41.7659 22.0739 42.4378 21.7116C43.1096 21.3428 43.9495 21.1583 44.9574 21.1583L55.1148 21.1583L55.1148 24.5968L53.03 24.5968L53.03 24.7154C53.4515 24.9328 53.8468 25.2391 54.2157 25.6343C54.5779 26.023 54.8711 26.5137 55.095 27.1066C55.3124 27.6928 55.4211 28.3812 55.4211 29.1716ZM52.7928 28.2428C52.7928 27.5248 52.6512 26.9023 52.3679 26.3754C52.0781 25.8484 51.6961 25.4433 51.2218 25.16C50.7475 24.8702 50.2304 24.7253 49.6705 24.7253L47.8821 24.7253C47.9743 24.8373 48.0599 25.0283 48.139 25.2984C48.218 25.5619 48.2872 25.8583 48.3465 26.1876C48.4057 26.517 48.4584 26.8431 48.5046 27.1658C48.5507 27.4886 48.5902 27.7686 48.6231 28.0057C48.6956 28.5393 48.8142 29.0168 48.9788 29.4384C49.1435 29.86 49.3741 30.1927 49.6705 30.4364C49.9603 30.6801 50.3358 30.802 50.7969 30.802C51.4556 30.802 51.953 30.5615 52.2889 30.0807C52.6248 29.5998 52.7928 28.9872 52.7928 28.2428Z" fill="white"/>
<path d="M55.1148 40.7939L39.9379 40.7939L39.9379 37.217L55.1148 37.217L55.1148 40.7939ZM37.7839 38.9956C37.7839 39.5621 37.5962 40.0495 37.2207 40.4579C36.8386 40.8664 36.3808 41.0706 35.8473 41.0706C35.3071 41.0706 34.8493 40.8664 34.4738 40.4579C34.0918 40.0495 33.9008 39.5621 33.9008 38.9956C33.9008 38.4225 34.0918 37.9351 34.4738 37.5332C34.8493 37.1248 35.3071 36.9206 35.8473 36.9206C36.3808 36.9206 36.8386 37.1248 37.2207 37.5332C37.5962 37.9351 37.7839 38.4225 37.7839 38.9956Z" fill="white"/>
<path d="M55.4112 50.5685C55.4112 52.0901 55.095 53.4043 54.4627 54.5109C53.8237 55.611 52.9213 56.4575 51.7553 57.0503C50.5828 57.6432 49.2028 57.9396 47.6153 57.9396C46.0541 57.9396 44.684 57.6432 43.5049 57.0503C42.3192 56.4509 41.397 55.6143 40.7383 54.5406C40.0729 53.4669 39.7403 52.2054 39.7403 50.7562C39.7403 49.8209 39.8918 48.9382 40.1948 48.1082C40.4912 47.2716 40.9523 46.5338 41.5781 45.8949C42.2039 45.2493 43.001 44.7421 43.9693 44.3732C44.931 44.0044 46.0772 43.8199 47.4078 43.8199L48.5046 43.8199L48.5046 56.2598L46.0936 56.2598L46.0936 47.2486C45.4086 47.2551 44.7993 47.4034 44.2657 47.6932C43.7255 47.983 43.3007 48.3881 42.9911 48.9085C42.6815 49.4223 42.5267 50.0218 42.5267 50.7068C42.5267 51.438 42.7045 52.0803 43.0602 52.6336C43.4094 53.1869 43.8705 53.6184 44.4436 53.928C45.0101 54.231 45.6325 54.3858 46.311 54.3924L48.4156 54.3924C49.2983 54.3924 50.0558 54.231 50.6882 53.9082C51.314 53.5854 51.7949 53.1342 52.1308 52.5545C52.4602 51.9749 52.6248 51.2964 52.6248 50.5191C52.6248 49.9987 52.5524 49.5277 52.4075 49.1061C52.256 48.6846 52.0353 48.319 51.7455 48.0094C51.4556 47.6998 51.0966 47.4659 50.6684 47.3078L51.0439 43.9681C51.9266 44.1789 52.6973 44.5807 53.356 45.1736C54.0082 45.7599 54.5154 46.5108 54.8777 47.4264C55.2334 48.342 55.4112 49.3894 55.4112 50.5685Z" fill="white"/>
</svg>
