<svg width="512" height="512" viewBox="0 0 512 512" fill="none" xmlns="http://www.w3.org/2000/svg">
<path d="M285.753 266.544L206.311 189.606C195.801 179.431 179.609 177.423 166.932 184.729C154.548 191.866 148.215 206.056 151.187 220.032L174.515 329.933L132.983 338.725L109.656 228.824C102.866 196.829 117.363 164.347 145.715 148.01C174.734 131.281 211.803 135.868 235.862 159.167L315.304 236.105L285.753 266.544Z" fill="#5700FF"/>
<path d="M381.533 352.424C376.891 357.155 371.565 361.329 365.619 364.798C336.681 381.674 299.587 377.275 275.413 354.106L195.575 277.565L224.975 246.978L304.811 323.516C315.367 333.638 331.57 335.555 344.212 328.184C356.555 320.985 362.818 306.767 359.776 292.805L335.884 183.026L377.371 174.02L401.263 283.8C406.752 309.041 398.975 334.649 381.533 352.424Z" fill="#5700FF"/>
</svg>
