<svg width="128" height="128" viewBox="0 0 128 128" fill="none" xmlns="http://www.w3.org/2000/svg">
<path d="M62.0932 33.9641C62.0932 36.2084 61.5166 38.2171 60.3635 39.9902C59.2103 41.7634 57.5364 43.1645 55.3417 44.1936C53.147 45.2228 50.4811 45.7374 47.3441 45.7374C44.1698 45.7374 41.4916 45.2166 39.3093 44.175C37.1146 43.1211 35.4592 41.7014 34.3433 39.9158C33.2149 38.1303 32.6508 36.1402 32.6508 33.9455C32.6508 32.2716 32.936 30.8953 33.5063 29.8165C34.0643 28.7378 34.7401 27.8822 35.5336 27.2498C36.3148 26.6175 37.0526 26.1277 37.7469 25.7805L37.7469 25.5015L23.5 25.5015L23.5 18.75L61.591 18.75L61.591 25.3713L57.09 25.3713L57.09 25.7805C57.7844 26.1277 58.5222 26.6299 59.3033 27.287C60.0721 27.9442 60.7293 28.8122 61.2748 29.8909C61.8204 30.9697 62.0932 32.3274 62.0932 33.9641ZM56.5693 32.0856C56.5693 30.6597 56.1849 29.4445 55.4161 28.4402C54.635 27.4358 53.55 26.6733 52.1613 26.1525C50.7725 25.6317 49.1544 25.3713 47.3069 25.3713C45.4594 25.3713 43.8537 25.6317 42.4897 26.1525C41.1258 26.6609 40.0656 27.4172 39.3093 28.4216C38.5529 29.4135 38.1747 30.6349 38.1747 32.0856C38.1747 33.5859 38.5653 34.8383 39.3465 35.8426C40.1276 36.847 41.2064 37.6033 42.5827 38.1117C43.959 38.6201 45.5338 38.8743 47.3069 38.8743C49.0924 38.8743 50.6857 38.6201 52.0869 38.1117C53.4756 37.5909 54.573 36.8284 55.3789 35.824C56.1725 34.8073 56.5693 33.5611 56.5693 32.0856Z" fill="white"/>
<path d="M62.1676 66.4196C62.1676 68.2299 61.8452 69.8604 61.2004 71.3112C60.5433 72.7495 59.5761 73.8902 58.299 74.7334C57.0218 75.5642 55.4471 75.9796 53.5748 75.9796C51.9629 75.9796 50.6299 75.682 49.576 75.0868C48.522 74.4916 47.6789 73.6795 47.0465 72.6503C46.4141 71.6212 45.9367 70.4618 45.6144 69.1723C45.2796 67.8703 45.0378 66.525 44.889 65.1363C44.7154 63.4623 44.5604 62.1046 44.424 61.063C44.2752 60.0215 44.052 59.2651 43.7544 58.794C43.4445 58.3104 42.9671 58.0686 42.3223 58.0686L42.2107 58.0686C40.8096 58.0686 39.7246 58.484 38.9559 59.3147C38.1871 60.1455 37.8027 61.342 37.8027 62.9044C37.8027 64.5535 38.1623 65.8616 38.8815 66.8288C39.6006 67.7835 40.45 68.4283 41.4295 68.7631L40.5368 75.0496C38.8009 74.5536 37.3501 73.7353 36.1846 72.5945C35.0066 71.4538 34.1263 70.0588 33.5435 68.4097C32.9483 66.7606 32.6508 64.9379 32.6508 62.9416C32.6508 61.5652 32.8119 60.1951 33.1343 58.8311C33.4567 57.4672 33.9899 56.2211 34.7339 55.0927C35.4654 53.9644 36.4636 53.0592 37.7283 52.3773C38.9931 51.6829 40.574 51.3357 42.4711 51.3357L61.591 51.3357L61.591 57.8082L57.6666 57.8082L57.6666 58.0314C58.4602 58.4406 59.2041 59.0171 59.8985 59.7611C60.5805 60.4927 61.1322 61.4164 61.5538 62.5324C61.963 63.6359 62.1676 64.9317 62.1676 66.4196ZM57.2202 64.6713C57.2202 63.3197 56.9536 62.148 56.4204 61.156C55.8749 60.1641 55.1557 59.4015 54.263 58.8683C53.3702 58.3228 52.3968 58.05 51.3429 58.05L47.9764 58.05C48.15 58.2608 48.3112 58.6204 48.46 59.1287C48.6088 59.6247 48.739 60.1827 48.8506 60.8027C48.9622 61.4226 49.0614 62.0364 49.1482 62.644C49.235 63.2515 49.3094 63.7785 49.3714 64.2249C49.5078 65.2293 49.731 66.1282 50.0409 66.9218C50.3509 67.7153 50.7849 68.3415 51.3429 68.8003C51.8885 69.2591 52.5952 69.4885 53.4632 69.4885C54.7031 69.4885 55.6393 69.0359 56.2717 68.1307C56.904 67.2256 57.2202 66.0724 57.2202 64.6713Z" fill="white"/>
<path d="M61.591 107.538L23.5 107.538L23.5 93.2535C23.5 90.3272 24.0456 87.8721 25.1367 85.8882C26.2279 83.8919 27.7282 82.3854 29.6377 81.3686C31.5348 80.3395 33.6923 79.8249 36.1102 79.8249C38.5529 79.8249 40.7228 80.3395 42.6199 81.3686C44.517 82.3978 46.0112 83.9167 47.1023 85.9254C48.1811 87.9341 48.7204 90.4078 48.7204 93.3465L48.7204 102.813L43.0477 102.813L43.0477 94.2764C43.0477 92.5653 42.7501 91.1642 42.1549 90.073C41.5598 88.9819 40.7414 88.1759 39.6998 87.6551C38.6583 87.1219 37.4618 86.8554 36.1102 86.8554C34.7587 86.8554 33.5683 87.1219 32.5392 87.6551C31.51 88.1759 30.7103 88.9881 30.1399 90.0916C29.5571 91.1828 29.2657 92.5901 29.2657 94.3136L29.2657 100.637L61.591 100.637L61.591 107.538Z" fill="white"/>
<path d="M104.322 54.9114C104.322 56.7217 104 58.3523 103.355 59.803C102.698 61.2413 101.731 62.3821 100.453 63.2252C99.1762 64.056 97.6015 64.4714 95.7292 64.4714C94.1173 64.4714 92.7843 64.1738 91.7304 63.5786C90.6764 62.9834 89.8333 62.1713 89.2009 61.1421C88.5685 60.113 88.0912 58.9536 87.7688 57.6641C87.434 56.3621 87.1922 55.0168 87.0434 53.6281C86.8698 51.9542 86.7148 50.5964 86.5784 49.5549C86.4296 48.5133 86.2064 47.757 85.9089 47.2858C85.5989 46.8022 85.1215 46.5604 84.4767 46.5604L84.3651 46.5604C82.964 46.5604 81.879 46.9758 81.1103 47.8065C80.3415 48.6373 79.9571 49.8339 79.9571 51.3962C79.9571 53.0453 80.3167 54.3534 81.0359 55.3206C81.7551 56.2754 82.6044 56.9201 83.584 57.2549L82.6912 63.5414C80.9553 63.0454 79.5046 62.2271 78.339 61.0863C77.1611 59.9456 76.2807 58.5506 75.6979 56.9015C75.1028 55.2524 74.8052 53.4297 74.8052 51.4334C74.8052 50.057 74.9664 48.6869 75.2888 47.323C75.6111 45.959 76.1443 44.7129 76.8883 43.5845C77.6198 42.4562 78.618 41.551 79.8827 40.8691C81.1475 40.1747 82.7284 39.8275 84.6255 39.8275L103.745 39.8275L103.745 46.3L99.821 46.3L99.821 46.5232C100.615 46.9324 101.359 47.509 102.053 48.2529C102.735 48.9845 103.287 49.9083 103.708 51.0242C104.117 52.1277 104.322 53.4235 104.322 54.9114ZM99.3746 53.1631C99.3746 51.8116 99.108 50.6398 98.5749 49.6479C98.0293 48.6559 97.3101 47.8933 96.4174 47.3602C95.5246 46.8146 94.5513 46.5418 93.4973 46.5418L90.1309 46.5418C90.3045 46.7526 90.4656 47.1122 90.6144 47.6206C90.7632 48.1165 90.8934 48.6745 91.005 49.2945C91.1166 49.9144 91.2158 50.5282 91.3026 51.1358C91.3894 51.7434 91.4638 52.2703 91.5258 52.7167C91.6622 53.7211 91.8854 54.62 92.1954 55.4136C92.5054 56.2072 92.9393 56.8333 93.4973 57.2921C94.0429 57.7509 94.7496 57.9803 95.6176 57.9803C96.8576 57.9803 97.7937 57.5277 98.4261 56.6225C99.0584 55.7174 99.3746 54.5642 99.3746 53.1631Z" fill="white"/>
<path d="M103.745 76.7886L75.1772 76.7886L75.1772 70.0557L103.745 70.0557L103.745 76.7886ZM71.1226 73.4036C71.1226 74.4699 70.7692 75.3875 70.0624 76.1562C69.3433 76.925 68.4815 77.3094 67.4771 77.3094C66.4604 77.3094 65.5986 76.925 64.8919 76.1562C64.1727 75.3875 63.8131 74.4699 63.8131 73.4036C63.8131 72.3248 64.1727 71.4073 64.8919 70.6509C65.5986 69.8821 66.4604 69.4978 67.4771 69.4978C68.4815 69.4978 69.3433 69.8821 70.0624 70.6509C70.7692 71.4073 71.1226 72.3248 71.1226 73.4036Z" fill="white"/>
<path d="M104.303 95.1878C104.303 98.0521 103.708 100.526 102.518 102.609C101.315 104.68 99.6164 106.273 97.4217 107.389C95.2146 108.505 92.6169 109.063 89.6287 109.063C86.69 109.063 84.1109 108.505 81.8914 107.389C79.6595 106.261 77.9236 104.686 76.6837 102.665C75.4313 100.644 74.8052 98.2691 74.8052 95.5412C74.8052 93.7805 75.0904 92.119 75.6607 90.5567C76.2187 88.9819 77.0867 87.5932 78.2646 86.3905C79.4426 85.1753 80.9429 84.2206 82.7656 83.5262C84.5759 82.8318 86.7334 82.4846 89.2381 82.4846L91.3026 82.4846L91.3026 105.901L86.7644 105.901L86.7644 88.9385C85.4749 88.9509 84.3279 89.2299 83.3236 89.7755C82.3068 90.3211 81.5071 91.0836 80.9243 92.0632C80.3415 93.0304 80.0501 94.1587 80.0501 95.4482C80.0501 96.8246 80.3849 98.0335 81.0545 99.0751C81.7117 100.117 82.5796 100.929 83.6584 101.512C84.7247 102.082 85.8965 102.373 87.1736 102.386L91.1352 102.386C92.7967 102.386 94.2227 102.082 95.413 101.474C96.591 100.867 97.4961 100.017 98.1285 98.9263C98.7485 97.8351 99.0584 96.558 99.0584 95.0949C99.0584 94.1153 98.9221 93.2287 98.6493 92.4352C98.3641 91.6416 97.9487 90.9534 97.4031 90.3707C96.8575 89.7879 96.1818 89.3477 95.3758 89.0501L96.0826 82.7636C97.7441 83.1604 99.1948 83.9168 100.435 85.0327C101.662 86.1363 102.617 87.5498 103.299 89.2733C103.969 90.9968 104.303 92.9684 104.303 95.1878Z" fill="white"/>
</svg>
